<?xml version="1.0" encoding="UTF-8" standalone="no"?>
<!-- Created with Inkscape (http://www.inkscape.org/) -->

<svg
   width="136.88432mm"
   height="147.44476mm"
   viewBox="0 0 136.88432 147.44476"
   version="1.1"
   id="svg1"
   xml:space="preserve"
   inkscape:version="1.4.4 (dcaf3e7, 2026-05-05)"
   sodipodi:docname="drawing.svg"
   inkscape:export-filename="drawing.svg"
   inkscape:export-xdpi="96"
   inkscape:export-ydpi="96"
   xmlns:inkscape="http://www.inkscape.org/namespaces/inkscape"
   xmlns:sodipodi="http://sodipodi.sourceforge.net/DTD/sodipodi-0.dtd"
   xmlns="http://www.w3.org/2000/svg"
   xmlns:svg="http://www.w3.org/2000/svg"><sodipodi:namedview
     id="namedview1"
     pagecolor="#ffffff"
     bordercolor="#000000"
     borderopacity="0.25"
     inkscape:showpageshadow="2"
     inkscape:pageopacity="0.0"
     inkscape:pagecheckerboard="0"
     inkscape:deskcolor="#d1d1d1"
     inkscape:document-units="mm"
     inkscape:zoom="1.2711951"
     inkscape:cx="247.40499"
     inkscape:cy="283.59141"
     inkscape:window-width="2560"
     inkscape:window-height="1440"
     inkscape:window-x="0"
     inkscape:window-y="0"
     inkscape:window-maximized="0"
     inkscape:current-layer="g7" /><defs
     id="defs1" /><g
     inkscape:label="Layer 1"
     inkscape:groupmode="layer"
     id="layer1"
     transform="translate(-43.090412,-48.261981)"><g
       id="g7"
       transform="translate(-2.2891405,5.4599751)"><path
         style="fill:#606060;fill-opacity:1"
         d="m 179.51749,153.57574 c 0,-32.66943 0.0308,-46.0342 0.0684,-29.69948 0.0377,16.33471 0.0377,43.06424 0,59.39896 -0.0376,16.33471 -0.0684,2.96994 -0.0684,-29.69948 z m -0.0393,-61.51563 c 9.6e-4,-1.164166 0.0475,-1.607504 0.10337,-0.985193 0.0559,0.62231 0.0551,1.57481 -0.002,2.116666 -0.0569,0.541857 -0.10258,0.03269 -0.10162,-1.131473 z m -0.0489,-7.276042 c 0,-0.363802 0.06,-0.51263 0.13345,-0.330729 0.0734,0.181901 0.0734,0.479558 0,0.661459 -0.0734,0.181901 -0.13345,0.03307 -0.13345,-0.33073 z"
         id="path9" /><path
         style="fill:#333333;fill-opacity:1"
         d="m 47.447619,179.2097 c -0.684959,-0.31098 -1.29013,-0.83829 -1.5875,-1.38325 -0.460716,-0.84431 -0.480567,-3.59671 -0.480567,-66.62965 0,-62.358866 0.0241,-65.793067 0.467499,-66.604378 0.257125,-0.47048 0.852437,-1.065792 1.322917,-1.322917 0.811325,-0.443402 4.25184,-0.467499 66.748292,-0.467499 63.06544,0 65.92415,0.02049 66.62149,0.477396 0.40073,0.262569 0.961,0.857881 1.24504,1.322917 0.50903,0.833392 0.51549,1.793139 0.45039,66.907851 l -0.066,66.06232 -0.77871,0.81279 c -0.42829,0.44703 -1.2022,0.93043 -1.71979,1.07422 -0.6083,0.16898 -23.95743,0.2599 -66.02858,0.2571 -63.369205,-0.004 -65.116721,-0.0176 -66.194431,-0.5069 z m 74.528801,-27.79226 c 12.09575,-0.8782 21.21126,-3.31474 27.07922,-7.23819 3.74162,-2.50172 5.4311,-5.23304 5.11939,-8.27629 -0.69412,-6.77662 -12.44047,-12.52419 -28.64846,-14.01787 l -1.87381,-0.17269 2.36795,-4.13332 c 6.11288,-10.67021 7.82814,-13.94414 9.95634,-19.003771 3.21103,-7.63396 3.66482,-13.51223 1.53343,-19.86335 -4.48093,-13.35228 -18.77443,-19.988092 -32.66563,-15.16515 -3.01164,1.04562 -5.626443,2.68946 -8.211156,5.16207 -5.316063,5.08552 -7.737648,10.60837 -7.724459,17.61699 0.01035,5.49737 1.306168,9.65824 5.76423,18.508861 1.50597,2.98982 2.893829,5.61462 3.084132,5.8329 0.190302,0.21828 0.671316,1.04579 1.068921,1.83891 0.397604,0.79311 0.988369,1.86467 1.312812,2.38125 0.32444,0.51657 1.10238,1.83219 1.72876,2.92359 0.62638,1.09141 1.41249,2.41937 1.74692,2.95103 l 0.60804,0.96666 -1.90508,0.18282 c -8.904092,0.85449 -16.677962,2.98911 -22.410294,6.15362 -1.861342,1.02755 -4.941777,3.90785 -5.652841,5.28558 -1.120721,2.17148 -0.870923,4.91023 0.656478,7.19753 3.661094,5.48253 15.662196,9.82034 30.004807,10.84525 4.29952,0.30724 12.98781,0.31924 17.0603,0.0236 z m -16.80104,-4.25859 c -15.751307,-1.4179 -27.384371,-5.92717 -27.384371,-10.61489 0,-0.56747 0.180338,-1.38051 0.400751,-1.80674 0.950662,-1.83838 5.34102,-4.25782 10.711749,-5.90303 4.332019,-1.32703 11.964791,-2.70361 15.944731,-2.87566 l 1.78954,-0.0773 3.23755,5.15937 c 3.3227,5.29507 3.84628,5.83939 4.83093,5.0222 0.37725,-0.31309 3.6806,-5.48249 5.45114,-8.53047 l 0.95911,-1.6511 1.68673,0.0708 c 8.91288,0.374 20.30638,3.51092 24.8899,6.85282 3.11909,2.27417 3.12811,5.0653 0.0238,7.35115 -4.84807,3.56982 -14.13519,6.07579 -25.97681,7.00941 -4.02355,0.31723 -13.00773,0.31371 -16.56472,-0.006 z m 5.29167,-49.391591 c -4.01869,-1.45329 -6.79197,-4.5718 -7.79908,-8.76993 -0.97289,-4.05544 1.09198,-9.12039 4.72298,-11.58508 2.32812,-1.58031 3.98683,-2.01762 7.16812,-1.88984 2.26797,0.0911 2.77566,0.20705 4.39339,1.00346 4.45512,2.19325 7.13676,7.36571 6.20424,11.967 -0.78747,3.88559 -4.14107,7.85204 -7.72989,9.14248 -1.78061,0.64025 -5.36616,0.70821 -6.95976,0.13191 z"
         id="path7" /></g></g></svg>
